<svg width="48" height="48" viewBox="0 0 48 48" fill="none" xmlns="http://www.w3.org/2000/svg">
<circle cx="24" cy="24" r="24" fill="#6200EE"/>
<path d="M24 12C20.1445 12 17 15.1445 17 19C17 21.3945 18.2188 23.5195 20.0625 24.7812C16.4844 26.3047 14 29.8594 14 34H16C16 29.5352 19.5352 26 24 26C28.4648 26 32 29.5352 32 34H34C34 29.8594 31.5156 26.3047 27.9375 24.7812C29.7812 23.5195 31 21.3945 31 19C31 15.1445 27.8555 12 24 12ZM24 14C26.7734 14 29 16.2266 29 19C29 21.7734 26.7734 24 24 24C21.2266 24 19 21.7734 19 19C19 16.2266 21.2266 14 24 14Z" fill="white"/>
</svg>
