<svg width="24" height="24" viewBox="0 0 24 24" fill="none" xmlns="http://www.w3.org/2000/svg">
<path d="M22 12C22 17.52 17.52 22 12 22C6.48 22 2 17.52 2 12C2 6.48 6.48 2 12 2" stroke="#2E2E2E" stroke-width="1.5" stroke-linecap="round" stroke-linejoin="round"/>
<path d="M22 6V2H18" stroke="#6862C2" stroke-width="1.5" stroke-linecap="round" stroke-linejoin="round"/>
<path d="M22 2L17 7" stroke="#6862C2" stroke-width="1.5" stroke-linecap="round" stroke-linejoin="round"/>
<path d="M9.88241 16V13.036H9.18641V12.148H9.88241V11.284H9.18641V10.396H9.88241V7.432H11.7664L12.7024 10.396H13.7944V7.432H15.1264V10.396H15.8104V11.284H15.1264V12.148H15.8104V13.036H15.1264V16H13.2304L12.2704 13.036H11.2144V16H9.88241ZM11.2144 12.148H12.0064L11.7424 11.284H11.1904L11.2144 12.148ZM13.8304 14.128H13.8904L13.8424 13.036H13.5184L13.8304 14.128ZM11.1664 10.396H11.5024L11.1544 9.244H11.1064L11.1664 10.396ZM13.2664 12.148H13.8184L13.7944 11.284H12.9904L13.2664 12.148Z" fill="#2E2E2E"/>
</svg>
